<mxfile host="65bd71144e">
    <diagram id="1wK5Vb-VDPqRYVqnz03B" name="Page-1">
        <mxGraphModel dx="2206" dy="1609" grid="1" gridSize="10" guides="1" tooltips="1" connect="1" arrows="1" fold="1" page="1" pageScale="1" pageWidth="850" pageHeight="1100" math="0" shadow="0">
            <root>
                <mxCell id="0"/>
                <mxCell id="1" parent="0"/>
                <mxCell id="16" value="" style="edgeStyle=none;html=1;fontSize=25;fontColor=#000000;" edge="1" parent="1" source="13" target="15">
                    <mxGeometry relative="1" as="geometry"/>
                </mxCell>
                <mxCell id="13" value="User" style="rounded=0;whiteSpace=wrap;html=1;fontSize=25;fontColor=#000000;fillColor=#FFFFFF;" vertex="1" parent="1">
                    <mxGeometry x="230" y="200" width="120" height="60" as="geometry"/>
                </mxCell>
                <mxCell id="57" value="" style="edgeStyle=none;html=1;fontSize=25;fontColor=#000000;" edge="1" parent="1" source="14" target="56">
                    <mxGeometry relative="1" as="geometry"/>
                </mxCell>
                <mxCell id="14" value="Admin" style="rounded=0;whiteSpace=wrap;html=1;fontSize=25;fontColor=#000000;fillColor=#FFFFFF;" vertex="1" parent="1">
                    <mxGeometry x="770" y="200" width="120" height="60" as="geometry"/>
                </mxCell>
                <mxCell id="18" value="" style="edgeStyle=none;html=1;fontSize=25;fontColor=#000000;" edge="1" parent="1" source="15" target="17">
                    <mxGeometry relative="1" as="geometry"/>
                </mxCell>
                <mxCell id="15" value="Login" style="rhombus;whiteSpace=wrap;html=1;fontSize=25;fillColor=#FFFFFF;fontColor=#000000;rounded=0;" vertex="1" parent="1">
                    <mxGeometry x="230" y="340" width="120" height="120" as="geometry"/>
                </mxCell>
                <mxCell id="19" style="edgeStyle=none;html=1;fontSize=25;fontColor=#000000;" edge="1" parent="1">
                    <mxGeometry relative="1" as="geometry">
                        <mxPoint x="290" y="300" as="targetPoint"/>
                        <mxPoint x="590" y="300" as="sourcePoint"/>
                    </mxGeometry>
                </mxCell>
                <mxCell id="17" value="Register" style="rhombus;whiteSpace=wrap;html=1;fontSize=25;fillColor=#FFFFFF;fontColor=#000000;rounded=0;" vertex="1" parent="1">
                    <mxGeometry x="430" y="340" width="120" height="120" as="geometry"/>
                </mxCell>
                <mxCell id="20" value="" style="endArrow=none;html=1;fontSize=25;fontColor=#000000;exitX=1;exitY=0.5;exitDx=0;exitDy=0;" edge="1" parent="1" source="17">
                    <mxGeometry width="50" height="50" relative="1" as="geometry">
                        <mxPoint x="750" y="300" as="sourcePoint"/>
                        <mxPoint x="590" y="400" as="targetPoint"/>
                    </mxGeometry>
                </mxCell>
                <mxCell id="21" value="" style="endArrow=none;html=1;fontSize=25;fontColor=#000000;" edge="1" parent="1">
                    <mxGeometry width="50" height="50" relative="1" as="geometry">
                        <mxPoint x="590" y="300" as="sourcePoint"/>
                        <mxPoint x="590" y="400" as="targetPoint"/>
                    </mxGeometry>
                </mxCell>
                <mxCell id="22" value="" style="endArrow=none;html=1;fontSize=25;fontColor=#000000;exitX=0.5;exitY=1;exitDx=0;exitDy=0;" edge="1" parent="1" source="15">
                    <mxGeometry width="50" height="50" relative="1" as="geometry">
                        <mxPoint x="600" y="460" as="sourcePoint"/>
                        <mxPoint x="290" y="1280" as="targetPoint"/>
                    </mxGeometry>
                </mxCell>
                <mxCell id="23" value="" style="endArrow=classic;html=1;fontSize=25;fontColor=#000000;" edge="1" parent="1">
                    <mxGeometry width="50" height="50" relative="1" as="geometry">
                        <mxPoint x="290" y="560" as="sourcePoint"/>
                        <mxPoint x="390" y="560" as="targetPoint"/>
                    </mxGeometry>
                </mxCell>
                <mxCell id="83" value="" style="edgeStyle=none;html=1;fontSize=25;fontColor=#FFFFFF;" edge="1" parent="1" source="24" target="82">
                    <mxGeometry relative="1" as="geometry"/>
                </mxCell>
                <mxCell id="24" value="View survey" style="rounded=1;whiteSpace=wrap;html=1;fontSize=25;fontColor=#000000;fillColor=#FFFFFF;" vertex="1" parent="1">
                    <mxGeometry x="390" y="530" width="190" height="60" as="geometry"/>
                </mxCell>
                <mxCell id="25" value="" style="endArrow=classic;html=1;fontSize=25;fontColor=#000000;" edge="1" parent="1">
                    <mxGeometry width="50" height="50" relative="1" as="geometry">
                        <mxPoint x="290" y="680" as="sourcePoint"/>
                        <mxPoint x="390" y="680" as="targetPoint"/>
                    </mxGeometry>
                </mxCell>
                <mxCell id="85" value="" style="edgeStyle=none;html=1;fontSize=21;fontColor=#FFFFFF;" edge="1" parent="1" source="26" target="84">
                    <mxGeometry relative="1" as="geometry"/>
                </mxCell>
                <mxCell id="91" value="" style="edgeStyle=none;html=1;fontSize=25;fontColor=#FFFFFF;" edge="1" parent="1" source="26" target="90">
                    <mxGeometry relative="1" as="geometry"/>
                </mxCell>
                <mxCell id="26" value="&lt;font style=&quot;font-size: 21px;&quot;&gt;View Crime Reports&lt;/font&gt;" style="rounded=1;whiteSpace=wrap;html=1;fontSize=25;fontColor=#000000;fillColor=#FFFFFF;" vertex="1" parent="1">
                    <mxGeometry x="390" y="650" width="190" height="60" as="geometry"/>
                </mxCell>
                <mxCell id="27" value="View goals" style="rounded=1;whiteSpace=wrap;html=1;fontSize=25;fontColor=#000000;fillColor=#FFFFFF;" vertex="1" parent="1">
                    <mxGeometry x="390" y="890" width="190" height="60" as="geometry"/>
                </mxCell>
                <mxCell id="28" value="" style="endArrow=classic;html=1;fontSize=25;fontColor=#000000;" edge="1" parent="1">
                    <mxGeometry width="50" height="50" relative="1" as="geometry">
                        <mxPoint x="290" y="920" as="sourcePoint"/>
                        <mxPoint x="390" y="920" as="targetPoint"/>
                    </mxGeometry>
                </mxCell>
                <mxCell id="40" value="" style="endArrow=classic;html=1;fontSize=25;fontColor=#000000;" edge="1" parent="1">
                    <mxGeometry width="50" height="50" relative="1" as="geometry">
                        <mxPoint x="290" y="1160" as="sourcePoint"/>
                        <mxPoint x="360" y="1160" as="targetPoint"/>
                    </mxGeometry>
                </mxCell>
                <mxCell id="41" value="Feedback" style="rounded=1;whiteSpace=wrap;html=1;fontSize=25;fontColor=#000000;fillColor=#FFFFFF;" vertex="1" parent="1">
                    <mxGeometry x="360" y="1130" width="220" height="60" as="geometry"/>
                </mxCell>
                <mxCell id="44" value="" style="endArrow=classic;html=1;fontSize=25;fontColor=#000000;entryX=0;entryY=0.5;entryDx=0;entryDy=0;" edge="1" parent="1" target="45">
                    <mxGeometry width="50" height="50" relative="1" as="geometry">
                        <mxPoint x="290" y="1280" as="sourcePoint"/>
                        <mxPoint x="390" y="1280" as="targetPoint"/>
                    </mxGeometry>
                </mxCell>
                <mxCell id="47" value="" style="edgeStyle=none;html=1;fontSize=25;fontColor=#000000;exitX=0.5;exitY=1;exitDx=0;exitDy=0;exitPerimeter=0;" edge="1" parent="1" source="45" target="46">
                    <mxGeometry relative="1" as="geometry">
                        <mxPoint x="450" y="1580" as="sourcePoint"/>
                        <Array as="points">
                            <mxPoint x="480" y="1920"/>
                        </Array>
                    </mxGeometry>
                </mxCell>
                <mxCell id="45" value="Logout" style="rounded=1;whiteSpace=wrap;html=1;fontSize=25;fontColor=#000000;fillColor=#FFFFFF;" vertex="1" parent="1">
                    <mxGeometry x="420" y="1250" width="120" height="60" as="geometry"/>
                </mxCell>
                <mxCell id="46" value="Stop" style="whiteSpace=wrap;html=1;fontSize=25;fillColor=#FFFFFF;fontColor=#000000;rounded=1;arcSize=50;" vertex="1" parent="1">
                    <mxGeometry x="750" y="1890" width="160" height="60" as="geometry"/>
                </mxCell>
                <mxCell id="53" style="edgeStyle=none;html=1;exitX=0.5;exitY=1;exitDx=0;exitDy=0;entryX=0.5;entryY=0;entryDx=0;entryDy=0;fontSize=25;fontColor=#000000;" edge="1" parent="1" source="52" target="14">
                    <mxGeometry relative="1" as="geometry"/>
                </mxCell>
                <mxCell id="52" value="Start" style="rounded=1;whiteSpace=wrap;html=1;fontSize=25;fontColor=#000000;fillColor=#FFFFFF;arcSize=50;" vertex="1" parent="1">
                    <mxGeometry x="770" y="50" width="120" height="60" as="geometry"/>
                </mxCell>
                <mxCell id="54" value="" style="endArrow=none;html=1;fontSize=25;fontColor=#000000;" edge="1" parent="1">
                    <mxGeometry width="50" height="50" relative="1" as="geometry">
                        <mxPoint x="290" y="140" as="sourcePoint"/>
                        <mxPoint x="830" y="139" as="targetPoint"/>
                    </mxGeometry>
                </mxCell>
                <mxCell id="55" value="" style="endArrow=classic;html=1;fontSize=25;fontColor=#000000;entryX=0.5;entryY=0;entryDx=0;entryDy=0;" edge="1" parent="1" target="13">
                    <mxGeometry width="50" height="50" relative="1" as="geometry">
                        <mxPoint x="290" y="140" as="sourcePoint"/>
                        <mxPoint x="660" y="170" as="targetPoint"/>
                    </mxGeometry>
                </mxCell>
                <mxCell id="58" style="edgeStyle=none;html=1;exitX=1;exitY=0.5;exitDx=0;exitDy=0;fontSize=25;fontColor=#000000;" edge="1" parent="1" source="56">
                    <mxGeometry relative="1" as="geometry">
                        <mxPoint x="830" y="280" as="targetPoint"/>
                        <Array as="points">
                            <mxPoint x="970" y="370"/>
                            <mxPoint x="970" y="280"/>
                        </Array>
                    </mxGeometry>
                </mxCell>
                <mxCell id="59" style="edgeStyle=none;html=1;exitX=0.5;exitY=1;exitDx=0;exitDy=0;fontSize=25;fontColor=#000000;entryX=1;entryY=0.5;entryDx=0;entryDy=0;" edge="1" parent="1" source="56" target="114">
                    <mxGeometry relative="1" as="geometry">
                        <mxPoint x="690" y="1710" as="targetPoint"/>
                        <mxPoint x="830" y="700" as="sourcePoint"/>
                        <Array as="points">
                            <mxPoint x="830" y="1760"/>
                        </Array>
                    </mxGeometry>
                </mxCell>
                <mxCell id="56" value="Login" style="rhombus;whiteSpace=wrap;html=1;fontSize=25;fillColor=#FFFFFF;fontColor=#000000;rounded=0;" vertex="1" parent="1">
                    <mxGeometry x="760" y="310" width="140" height="120" as="geometry"/>
                </mxCell>
                <mxCell id="60" value="" style="endArrow=classic;html=1;fontSize=25;fontColor=#000000;" edge="1" parent="1">
                    <mxGeometry width="50" height="50" relative="1" as="geometry">
                        <mxPoint x="830" y="520" as="sourcePoint"/>
                        <mxPoint x="940" y="520" as="targetPoint"/>
                    </mxGeometry>
                </mxCell>
                <mxCell id="70" style="edgeStyle=none;html=1;exitX=1;exitY=0.5;exitDx=0;exitDy=0;fontSize=25;fontColor=#000000;entryX=0.5;entryY=0;entryDx=0;entryDy=0;" edge="1" parent="1" source="61" target="75">
                    <mxGeometry relative="1" as="geometry">
                        <mxPoint x="1330" y="1220" as="targetPoint"/>
                        <Array as="points">
                            <mxPoint x="1550" y="520"/>
                        </Array>
                    </mxGeometry>
                </mxCell>
                <mxCell id="61" value="Receive Overview" style="rounded=1;whiteSpace=wrap;html=1;fontSize=25;fontColor=#000000;fillColor=#FFFFFF;" vertex="1" parent="1">
                    <mxGeometry x="940" y="490" width="220" height="60" as="geometry"/>
                </mxCell>
                <mxCell id="93" value="" style="edgeStyle=none;html=1;fontSize=22;fontColor=#FFFFFF;" edge="1" parent="1" source="62" target="92">
                    <mxGeometry relative="1" as="geometry"/>
                </mxCell>
                <mxCell id="62" value="Manage surveys" style="rounded=1;whiteSpace=wrap;html=1;fontSize=25;fontColor=#000000;fillColor=#FFFFFF;" vertex="1" parent="1">
                    <mxGeometry x="940" y="610" width="220" height="60" as="geometry"/>
                </mxCell>
                <mxCell id="63" value="" style="endArrow=classic;html=1;fontSize=25;fontColor=#000000;" edge="1" parent="1">
                    <mxGeometry width="50" height="50" relative="1" as="geometry">
                        <mxPoint x="830" y="640" as="sourcePoint"/>
                        <mxPoint x="940" y="640" as="targetPoint"/>
                    </mxGeometry>
                </mxCell>
                <mxCell id="73" style="edgeStyle=none;html=1;exitX=1;exitY=0.5;exitDx=0;exitDy=0;fontSize=25;fontColor=#000000;" edge="1" parent="1" source="64">
                    <mxGeometry relative="1" as="geometry">
                        <mxPoint x="1550" y="850" as="targetPoint"/>
                    </mxGeometry>
                </mxCell>
                <mxCell id="64" value="&lt;font style=&quot;font-size: 25px;&quot;&gt;Manage Crime reports&lt;/font&gt;" style="rounded=1;whiteSpace=wrap;html=1;fontSize=25;fontColor=#000000;fillColor=#FFFFFF;" vertex="1" parent="1">
                    <mxGeometry x="940" y="820" width="240" height="60" as="geometry"/>
                </mxCell>
                <mxCell id="65" value="" style="endArrow=classic;html=1;fontSize=25;fontColor=#000000;" edge="1" parent="1">
                    <mxGeometry width="50" height="50" relative="1" as="geometry">
                        <mxPoint x="830" y="850" as="sourcePoint"/>
                        <mxPoint x="940" y="850" as="targetPoint"/>
                    </mxGeometry>
                </mxCell>
                <mxCell id="66" value="" style="endArrow=classic;html=1;fontSize=25;fontColor=#000000;entryX=0;entryY=0.5;entryDx=0;entryDy=0;" edge="1" parent="1" target="67">
                    <mxGeometry width="50" height="50" relative="1" as="geometry">
                        <mxPoint x="830" y="970" as="sourcePoint"/>
                        <mxPoint x="940" y="970" as="targetPoint"/>
                    </mxGeometry>
                </mxCell>
                <mxCell id="72" style="edgeStyle=none;html=1;exitX=1;exitY=0.5;exitDx=0;exitDy=0;fontSize=25;fontColor=#000000;" edge="1" parent="1" source="67">
                    <mxGeometry relative="1" as="geometry">
                        <mxPoint x="1550" y="970" as="targetPoint"/>
                    </mxGeometry>
                </mxCell>
                <mxCell id="96" value="" style="edgeStyle=none;html=1;fontSize=25;fontColor=#FFFFFF;" edge="1" parent="1" source="67" target="95">
                    <mxGeometry relative="1" as="geometry"/>
                </mxCell>
                <mxCell id="67" value="Manage Objectives" style="rounded=1;whiteSpace=wrap;html=1;fontSize=25;fontColor=#000000;fillColor=#FFFFFF;" vertex="1" parent="1">
                    <mxGeometry x="970" y="940" width="220" height="60" as="geometry"/>
                </mxCell>
                <mxCell id="68" value="" style="endArrow=classic;html=1;fontSize=25;fontColor=#000000;" edge="1" parent="1">
                    <mxGeometry width="50" height="50" relative="1" as="geometry">
                        <mxPoint x="830" y="1380" as="sourcePoint"/>
                        <mxPoint x="940" y="1380" as="targetPoint"/>
                    </mxGeometry>
                </mxCell>
                <mxCell id="71" style="edgeStyle=none;html=1;exitX=1;exitY=0.5;exitDx=0;exitDy=0;fontSize=25;fontColor=#000000;" edge="1" parent="1" source="69">
                    <mxGeometry relative="1" as="geometry">
                        <mxPoint x="1550" y="1379" as="targetPoint"/>
                    </mxGeometry>
                </mxCell>
                <mxCell id="107" value="" style="edgeStyle=none;html=1;fontSize=25;fontColor=#FFFFFF;" edge="1" parent="1" source="69" target="106">
                    <mxGeometry relative="1" as="geometry"/>
                </mxCell>
                <mxCell id="69" value="Manage Tasks" style="rounded=1;whiteSpace=wrap;html=1;fontSize=25;fontColor=#000000;fillColor=#FFFFFF;" vertex="1" parent="1">
                    <mxGeometry x="940" y="1350" width="220" height="60" as="geometry"/>
                </mxCell>
                <mxCell id="74" style="edgeStyle=none;html=1;exitX=1;exitY=0.5;exitDx=0;exitDy=0;fontSize=25;fontColor=#000000;" edge="1" parent="1">
                    <mxGeometry relative="1" as="geometry">
                        <mxPoint x="1550" y="639" as="targetPoint"/>
                        <mxPoint x="1140" y="639.29" as="sourcePoint"/>
                    </mxGeometry>
                </mxCell>
                <mxCell id="75" value="Logs" style="shape=document;whiteSpace=wrap;html=1;boundedLbl=1;fontSize=25;fontColor=#000000;fillColor=#FFFFFF;" vertex="1" parent="1">
                    <mxGeometry x="1490" y="1620" width="120" height="80" as="geometry"/>
                </mxCell>
                <mxCell id="76" value="no" style="text;html=1;align=center;verticalAlign=middle;resizable=0;points=[];autosize=1;strokeColor=none;fillColor=none;fontSize=25;fontColor=#000000;" vertex="1" parent="1">
                    <mxGeometry x="920" y="304" width="50" height="40" as="geometry"/>
                </mxCell>
                <mxCell id="77" value="Yes" style="text;html=1;align=center;verticalAlign=middle;resizable=0;points=[];autosize=1;strokeColor=none;fillColor=none;fontSize=25;fontColor=#000000;" vertex="1" parent="1">
                    <mxGeometry x="825" y="450" width="60" height="40" as="geometry"/>
                </mxCell>
                <mxCell id="78" value="No" style="text;html=1;align=center;verticalAlign=middle;resizable=0;points=[];autosize=1;strokeColor=none;fillColor=none;fontSize=25;fontColor=#000000;" vertex="1" parent="1">
                    <mxGeometry x="360" y="340" width="60" height="40" as="geometry"/>
                </mxCell>
                <mxCell id="79" value="Yes" style="text;html=1;align=center;verticalAlign=middle;resizable=0;points=[];autosize=1;strokeColor=none;fillColor=none;fontSize=25;fontColor=#000000;" vertex="1" parent="1">
                    <mxGeometry x="290" y="480" width="60" height="40" as="geometry"/>
                </mxCell>
                <mxCell id="82" value="Respond survey" style="whiteSpace=wrap;html=1;fontSize=25;fillColor=#FFFFFF;fontColor=#000000;rounded=1;" vertex="1" parent="1">
                    <mxGeometry x="620" y="530" width="190" height="60" as="geometry"/>
                </mxCell>
                <mxCell id="84" value="&lt;font style=&quot;font-size: 25px;&quot;&gt;Report Crime&lt;/font&gt;" style="whiteSpace=wrap;html=1;fontSize=25;fillColor=#FFFFFF;fontColor=#000000;rounded=1;" vertex="1" parent="1">
                    <mxGeometry x="620" y="650" width="190" height="60" as="geometry"/>
                </mxCell>
                <mxCell id="86" value="" style="endArrow=classic;html=1;fontSize=25;fontColor=#000000;" edge="1" parent="1">
                    <mxGeometry width="50" height="50" relative="1" as="geometry">
                        <mxPoint x="290" y="1040" as="sourcePoint"/>
                        <mxPoint x="390" y="1040" as="targetPoint"/>
                    </mxGeometry>
                </mxCell>
                <mxCell id="87" value="View Action plan" style="rounded=1;whiteSpace=wrap;html=1;fontSize=25;fontColor=#000000;fillColor=#FFFFFF;" vertex="1" parent="1">
                    <mxGeometry x="390" y="1010" width="190" height="60" as="geometry"/>
                </mxCell>
                <mxCell id="90" value="Track crime on map" style="whiteSpace=wrap;html=1;fontSize=25;fillColor=#FFFFFF;fontColor=#000000;rounded=1;" vertex="1" parent="1">
                    <mxGeometry x="360" y="790" width="250" height="60" as="geometry"/>
                </mxCell>
                <mxCell id="94" style="edgeStyle=none;html=1;exitX=1;exitY=0.5;exitDx=0;exitDy=0;fontSize=22;fontColor=#FFFFFF;" edge="1" parent="1" source="92">
                    <mxGeometry relative="1" as="geometry">
                        <mxPoint x="1550" y="750" as="targetPoint"/>
                    </mxGeometry>
                </mxCell>
                <mxCell id="92" value="Create survey" style="whiteSpace=wrap;html=1;fontSize=25;fillColor=#FFFFFF;fontColor=#000000;rounded=1;" vertex="1" parent="1">
                    <mxGeometry x="950" y="720" width="200" height="60" as="geometry"/>
                </mxCell>
                <mxCell id="98" value="" style="edgeStyle=none;html=1;fontSize=25;fontColor=#FFFFFF;" edge="1" parent="1" source="95" target="97">
                    <mxGeometry relative="1" as="geometry"/>
                </mxCell>
                <mxCell id="100" value="" style="edgeStyle=none;html=1;fontSize=25;fontColor=#FFFFFF;" edge="1" parent="1" source="95" target="99">
                    <mxGeometry relative="1" as="geometry"/>
                </mxCell>
                <mxCell id="102" value="" style="edgeStyle=none;html=1;fontSize=25;fontColor=#FFFFFF;" edge="1" parent="1" source="95" target="101">
                    <mxGeometry relative="1" as="geometry"/>
                </mxCell>
                <mxCell id="95" value="View District Overview" style="whiteSpace=wrap;html=1;fontSize=25;fillColor=#FFFFFF;fontColor=#000000;rounded=1;" vertex="1" parent="1">
                    <mxGeometry x="910" y="1040" width="340" height="60" as="geometry"/>
                </mxCell>
                <mxCell id="105" style="edgeStyle=none;html=1;exitX=0.5;exitY=1;exitDx=0;exitDy=0;fontSize=25;fontColor=#FFFFFF;" edge="1" parent="1" source="97">
                    <mxGeometry relative="1" as="geometry">
                        <mxPoint x="1550" y="1280" as="targetPoint"/>
                        <Array as="points">
                            <mxPoint x="910" y="1280"/>
                        </Array>
                    </mxGeometry>
                </mxCell>
                <mxCell id="97" value="Manage Goals" style="whiteSpace=wrap;html=1;fontSize=25;fillColor=#FFFFFF;fontColor=#000000;rounded=1;" vertex="1" parent="1">
                    <mxGeometry x="850" y="1180" width="120" height="60" as="geometry"/>
                </mxCell>
                <mxCell id="103" style="edgeStyle=none;html=1;exitX=0.5;exitY=1;exitDx=0;exitDy=0;fontSize=25;fontColor=#FFFFFF;" edge="1" parent="1" source="99">
                    <mxGeometry relative="1" as="geometry">
                        <mxPoint x="1550" y="1280" as="targetPoint"/>
                        <Array as="points">
                            <mxPoint x="1310" y="1280"/>
                        </Array>
                    </mxGeometry>
                </mxCell>
                <mxCell id="99" value="Manage reports" style="whiteSpace=wrap;html=1;fontSize=25;fillColor=#FFFFFF;fontColor=#000000;rounded=1;" vertex="1" parent="1">
                    <mxGeometry x="1250" y="1180" width="120" height="60" as="geometry"/>
                </mxCell>
                <mxCell id="104" style="edgeStyle=none;html=1;exitX=0.5;exitY=1;exitDx=0;exitDy=0;fontSize=25;fontColor=#FFFFFF;" edge="1" parent="1" source="101">
                    <mxGeometry relative="1" as="geometry">
                        <mxPoint x="1550" y="1280" as="targetPoint"/>
                        <Array as="points">
                            <mxPoint x="1110" y="1280"/>
                        </Array>
                    </mxGeometry>
                </mxCell>
                <mxCell id="101" value="Manage Action Plans" style="whiteSpace=wrap;html=1;fontSize=25;fillColor=#FFFFFF;fontColor=#000000;rounded=1;" vertex="1" parent="1">
                    <mxGeometry x="1000" y="1180" width="220" height="60" as="geometry"/>
                </mxCell>
                <mxCell id="108" style="edgeStyle=none;html=1;exitX=1;exitY=0.5;exitDx=0;exitDy=0;fontSize=25;fontColor=#FFFFFF;" edge="1" parent="1" source="106">
                    <mxGeometry relative="1" as="geometry">
                        <mxPoint x="1550" y="1520" as="targetPoint"/>
                    </mxGeometry>
                </mxCell>
                <mxCell id="106" value="Assign officer to task" style="whiteSpace=wrap;html=1;fontSize=25;fillColor=#FFFFFF;fontColor=#000000;rounded=1;" vertex="1" parent="1">
                    <mxGeometry x="930" y="1490" width="240" height="60" as="geometry"/>
                </mxCell>
                <mxCell id="109" value="" style="endArrow=classic;html=1;fontSize=25;fontColor=#000000;" edge="1" parent="1">
                    <mxGeometry width="50" height="50" relative="1" as="geometry">
                        <mxPoint x="830" y="1640" as="sourcePoint"/>
                        <mxPoint x="940" y="1640" as="targetPoint"/>
                    </mxGeometry>
                </mxCell>
                <mxCell id="110" value="View Modules" style="rounded=1;whiteSpace=wrap;html=1;fontSize=25;fontColor=#000000;fillColor=#FFFFFF;" vertex="1" parent="1">
                    <mxGeometry x="940" y="1610" width="220" height="60" as="geometry"/>
                </mxCell>
                <mxCell id="117" style="edgeStyle=none;html=1;exitX=0.5;exitY=1;exitDx=0;exitDy=0;entryX=1;entryY=0.5;entryDx=0;entryDy=0;fontSize=25;fontColor=#FFFFFF;" edge="1" parent="1" source="114" target="46">
                    <mxGeometry relative="1" as="geometry">
                        <Array as="points">
                            <mxPoint x="1040" y="1920"/>
                        </Array>
                    </mxGeometry>
                </mxCell>
                <mxCell id="114" value="Logout" style="rounded=1;whiteSpace=wrap;html=1;fontSize=25;fontColor=#000000;fillColor=#FFFFFF;" vertex="1" parent="1">
                    <mxGeometry x="980" y="1730" width="120" height="60" as="geometry"/>
                </mxCell>
            </root>
        </mxGraphModel>
    </diagram>
</mxfile>